<?xml version="1.0" standalone="no"?>
<!DOCTYPE svg PUBLIC "-//W3C//DTD SVG 20010904//EN"
 "http://www.w3.org/TR/2001/REC-SVG-20010904/DTD/svg10.dtd">
<svg version="1.0" xmlns="http://www.w3.org/2000/svg"
 width="365.000000pt" height="140.000000pt" viewBox="0 0 365.000000 140.000000"
 preserveAspectRatio="xMidYMid meet">
<metadata>
Created by potrace 1.16, written by Peter Selinger 2001-2019
</metadata>
<g transform="translate(0.000000,140.000000) scale(0.100000,-0.100000)"
fill="#000000" stroke="none">
<path d="M416 1124 c-9 -24 -9 -24 39 -24 25 0 45 -2 45 -4 0 -3 -45 -136
-100 -297 -55 -162 -100 -295 -100 -296 0 -2 -22 -3 -49 -3 -40 0 -50 -3 -54
-20 -5 -20 0 -20 263 -20 l268 0 44 113 c36 91 41 113 29 116 -8 2 -17 -2 -19
-9 -2 -6 -23 -39 -46 -73 -60 -89 -86 -101 -230 -106 -111 -3 -118 -2 -112 15
4 11 26 75 49 144 l43 125 57 3 c31 2 66 -2 78 -8 19 -11 21 -18 15 -61 -5
-38 -4 -49 7 -49 9 0 30 46 57 128 24 70 45 133 48 140 2 6 -3 12 -12 12 -9 0
-26 -21 -40 -48 -29 -57 -57 -72 -136 -72 l-59 0 46 136 46 136 118 -4 c100
-3 120 -6 139 -23 19 -17 21 -28 18 -72 -3 -39 -1 -53 8 -53 17 0 19 3 47 103
l25 87 -263 0 c-230 0 -264 -2 -269 -16z"/>
<path d="M1306 1124 c-9 -24 -9 -24 30 -24 25 0 35 -4 32 -12 -3 -7 -24 -70
-47 -140 -24 -70 -46 -130 -51 -133 -5 -3 -11 3 -15 14 -15 48 -123 52 -200 7
-119 -70 -193 -230 -151 -329 33 -81 165 -89 244 -14 l24 22 -7 -28 -7 -27 75
0 c59 0 76 3 81 16 9 24 9 24 -29 24 l-34 0 109 320 109 320 -78 0 c-63 0 -80
-3 -85 -16z m-86 -314 c38 -38 14 -161 -51 -256 -58 -85 -174 -101 -192 -27
-14 60 49 220 107 271 45 39 104 44 136 12z"/>
<path d="M3146 1124 c-9 -24 -9 -24 30 -24 25 0 35 -4 32 -12 -3 -7 -24 -70
-47 -140 -24 -70 -46 -130 -51 -133 -5 -3 -11 3 -15 14 -15 48 -123 52 -200 7
-119 -70 -193 -230 -151 -329 33 -81 165 -89 244 -14 l24 22 -7 -28 -7 -27 75
0 c59 0 76 3 81 16 9 24 9 24 -28 24 l-35 0 109 320 109 320 -79 0 c-62 0 -79
-3 -84 -16z m-86 -314 c38 -38 14 -161 -51 -256 -58 -85 -174 -101 -192 -27
-14 60 49 220 107 271 45 39 104 44 136 12z"/>
<path d="M1626 860 c-44 -14 -94 -51 -124 -94 -22 -32 -27 -50 -27 -100 0 -46
-4 -64 -17 -74 -27 -20 -68 -96 -68 -125 0 -44 32 -57 143 -57 54 0 107 -5
118 -10 43 -23 7 -105 -63 -142 -62 -32 -178 -33 -210 0 l-23 23 22 40 c19 34
20 41 7 46 -19 7 -60 -31 -72 -67 -37 -104 144 -146 296 -69 78 40 122 94 129
160 4 36 1 48 -17 64 -19 17 -40 21 -144 25 -111 5 -121 7 -124 25 -1 11 8 33
20 48 21 25 26 27 51 18 124 -47 287 66 287 198 0 46 25 68 42 38 13 -24 45
-21 63 7 34 51 -17 74 -85 37 -33 -18 -35 -18 -65 0 -32 20 -90 23 -139 9z
m88 -36 c37 -14 -1 -165 -51 -204 -28 -22 -97 -28 -108 -9 -23 36 17 163 63
199 24 20 66 26 96 14z"/>
<path d="M2100 861 c-82 -26 -139 -85 -119 -123 22 -41 93 -3 91 49 -1 34 15
43 75 43 34 0 67 -25 59 -45 -2 -7 -10 -31 -17 -54 -11 -36 -16 -41 -41 -41
-58 0 -167 -32 -206 -60 -40 -29 -72 -82 -72 -119 0 -34 44 -71 83 -71 41 0
93 17 129 42 26 18 27 18 33 -1 7 -22 49 -32 99 -24 41 6 49 23 12 23 -14 0
-27 4 -30 9 -4 5 14 67 39 138 72 201 65 235 -47 240 -35 1 -74 -1 -88 -6z
m54 -233 c-25 -82 -75 -135 -137 -145 -43 -7 -62 14 -53 61 11 60 78 103 164
105 30 1 33 -1 26 -21z"/>
<path d="M2660 859 c-13 -6 -39 -21 -57 -35 -36 -28 -37 -27 -23 10 l10 26
-79 0 c-63 0 -80 -3 -85 -16 -9 -24 -9 -24 28 -24 l34 0 -52 -157 -53 -158
-34 -3 c-31 -3 -48 -15 -49 -34 0 -5 51 -8 114 -8 105 0 114 1 119 20 4 17 0
20 -32 20 l-38 0 33 95 c18 52 40 107 48 123 15 28 89 102 104 102 4 0 7 -15
7 -32 0 -44 34 -50 70 -14 58 58 14 116 -65 85z"/>
</g>
</svg>
